# xmcd
#
# Track frame offsets:
#	150
#	15890
#	28206
#	41375
#	51618
#	68148
#	82041
#	95655
#	108661
#	121028
#	134737
#	148831
#	163553
#	176850
#	188168
#	201412
#	214312
#	229443
#	240906
#	253977
#	275438
#	287188
#	301407
#	314229
#	326213
#	337774
#
# Disc length: 4691 seconds
#
# Revision: 1
# Processed by: cddbd v1.5.2PL0 Copyright (c) Steve Scherf et al.
# Submitted via: EasyCDDAExtractor 2011.3.0.0
#
DISCID=9d12511a
DTITLE=RENÊ E RONALDO - 25 ANOS DE CARREIRA
DYEAR=2011
DGENRE=SERTANEJO
TTITLE0=TÁ TARADA (BY DJ GILMAR SINISTRO)
TTITLE1=FÚRIA LOUCA (BY DJ GILMAR SINISTRO)
TTITLE2=EU SOU DE VOCÊ (BY DJ GILMAR SINISTRO)
TTITLE3=MEU VÍCIO (BY DJ GILMAR SINISTRO)
TTITLE4=SÓ UM GRANDE AMOR (BY DJ GILMAR SINISTRO)
TTITLE5=TÁ VENDO AQUELA LUA (BY DJ GILMAR SINISTRO)
TTITLE6=VOCÊ (BY DJ GILMAR SINISTRO)
TTITLE7=EU SOU SEU (GAGA-GAGA) (BY DJ GILMAR SINISTRO)
TTITLE8=CICATRIZ (BY DJ GILMAR SINISTRO)
TTITLE9=É DE CORAÇÃO (BY DJ GILMAR SINISTRO)
TTITLE10=HOJE EU QUERO TE AMAR (BY DJ GILMAR SINISTRO)
TTITLE11=JURO QUE NÃO VOU MAIS CHORAR (BY DJ GILMAR SINISTRO)
TTITLE12=SEPARADOS (BY DJ GILMAR SINISTRO)
TTITLE13=LENHA (BY DJ GILMAR SINISTRO)
TTITLE14=SÓ VOCÊ ME FAZ FELIZ (BY DJ GILMAR SINISTRO)
TTITLE15=É TARDE DEMAIS (BY DJ GILMAR SINISTRO)
TTITLE16=TOMAR MÉ (BY DJ GILMAR SINISTRO)
TTITLE17=A SOGRA (BY DJ GILMAR SINISTRO)
TTITLE18=VOCÊ SE LEMBRA (BY DJ GILMAR SINISTRO)
TTITLE19=PAGODE EM BRASÍLIA,A COISA TÁ FEIA,A COISA TA PRETA (BY DJ GILMAR SIN
TTITLE19=ISTRO)
TTITLE20=CORAÇÃO CORAÇÃO (BY DJ GILMAR SINISTRO)
TTITLE21=PECADO DE AMOR (BY DJ GILMAR SINISTRO)
TTITLE22=QUEM BEBE VIVE MENOS (BY DJ GILMAR SINISTRO)
TTITLE23=CORAÇÃO PARTIDO (BY DJ GILMAR SINISTRO)
TTITLE24=FURA ZÓI (BY DJ GILMAR SINISTRO)
TTITLE25=FONTE DE DESEJOS (BY DJ GILMAR SINISTRO)
EXTD=
EXTT0=
EXTT1=
EXTT2=
EXTT3=
EXTT4=
EXTT5=
EXTT6=
EXTT7=
EXTT8=
EXTT9=
EXTT10=
EXTT11=
EXTT12=
EXTT13=
EXTT14=
EXTT15=
EXTT16=
EXTT17=
EXTT18=
EXTT19=
EXTT20=
EXTT21=
EXTT22=
EXTT23=
EXTT24=
EXTT25=
PLAYORDER=
